<svg xmlns="http://www.w3.org/2000/svg" width="161" height="49" viewBox="0 0 161 49" role="img" aria-label="EMAIL"><circle cx="10.5" cy="10.5" r="2.4" fill="#24292f"/><circle cx="17.5" cy="10.5" r="2.4" fill="#24292f"/><circle cx="24.5" cy="10.5" r="2.4" fill="#24292f"/><circle cx="10.5" cy="17.5" r="2.4" fill="#24292f"/><circle cx="10.5" cy="24.5" r="2.4" fill="#24292f"/><circle cx="17.5" cy="24.5" r="2.4" fill="#24292f"/><circle cx="10.5" cy="31.5" r="2.4" fill="#24292f"/><circle cx="10.5" cy="38.5" r="2.4" fill="#24292f"/><circle cx="17.5" cy="38.5" r="2.4" fill="#24292f"/><circle cx="24.5" cy="38.5" r="2.4" fill="#24292f"/><circle cx="38.5" cy="10.5" r="2.4" fill="#24292f"/><circle cx="66.5" cy="10.5" r="2.4" fill="#24292f"/><circle cx="38.5" cy="17.5" r="2.4" fill="#24292f"/><circle cx="45.5" cy="17.5" r="2.4" fill="#24292f"/><circle cx="59.5" cy="17.5" r="2.4" fill="#24292f"/><circle cx="66.5" cy="17.5" r="2.4" fill="#24292f"/><circle cx="38.5" cy="24.5" r="2.4" fill="#24292f"/><circle cx="52.5" cy="24.5" r="2.4" fill="#24292f"/><circle cx="66.5" cy="24.5" r="2.4" fill="#24292f"/><circle cx="38.5" cy="31.5" r="2.4" fill="#24292f"/><circle cx="66.5" cy="31.5" r="2.4" fill="#24292f"/><circle cx="38.5" cy="38.5" r="2.4" fill="#24292f"/><circle cx="66.5" cy="38.5" r="2.4" fill="#24292f"/><circle cx="87.5" cy="10.5" r="2.4" fill="#24292f"/><circle cx="80.5" cy="17.5" r="2.4" fill="#24292f"/><circle cx="94.5" cy="17.5" r="2.4" fill="#24292f"/><circle cx="80.5" cy="24.5" r="2.4" fill="#24292f"/><circle cx="87.5" cy="24.5" r="2.4" fill="#24292f"/><circle cx="94.5" cy="24.5" r="2.4" fill="#24292f"/><circle cx="80.5" cy="31.5" r="2.4" fill="#24292f"/><circle cx="94.5" cy="31.5" r="2.4" fill="#24292f"/><circle cx="80.5" cy="38.5" r="2.4" fill="#24292f"/><circle cx="94.5" cy="38.5" r="2.4" fill="#24292f"/><circle cx="108.5" cy="10.5" r="2.4" fill="#24292f"/><circle cx="115.5" cy="10.5" r="2.4" fill="#24292f"/><circle cx="122.5" cy="10.5" r="2.4" fill="#24292f"/><circle cx="115.5" cy="17.5" r="2.4" fill="#24292f"/><circle cx="115.5" cy="24.5" r="2.4" fill="#24292f"/><circle cx="115.5" cy="31.5" r="2.4" fill="#24292f"/><circle cx="108.5" cy="38.5" r="2.4" fill="#24292f"/><circle cx="115.5" cy="38.5" r="2.4" fill="#24292f"/><circle cx="122.5" cy="38.5" r="2.4" fill="#24292f"/><circle cx="136.5" cy="10.5" r="2.4" fill="#24292f"/><circle cx="136.5" cy="17.5" r="2.4" fill="#24292f"/><circle cx="136.5" cy="24.5" r="2.4" fill="#24292f"/><circle cx="136.5" cy="31.5" r="2.4" fill="#24292f"/><circle cx="136.5" cy="38.5" r="2.4" fill="#24292f"/><circle cx="143.5" cy="38.5" r="2.4" fill="#24292f"/><circle cx="150.5" cy="38.5" r="2.4" fill="#24292f"/></svg>