<svg xmlns="http://www.w3.org/2000/svg" width="832" height="24" viewBox="0 0 832 24" shape-rendering="crispEdges" role="img">
<style>
  .blink   { animation: blink 1.1s steps(1) infinite; }
  .twinkle { animation: twinkle 2.6s ease-in-out infinite; }
  .win     { animation: winblink 4s steps(1) infinite; }
  .fa      { animation: frameA 1.2s steps(1) infinite; }
  .fb      { animation: frameB 1.2s steps(1) infinite; }
  .eyes    { animation: eyeblink 5s steps(1) infinite; }
  .shoot   { animation: shoot 9s linear infinite; }
  @keyframes blink    { 0%, 49% { opacity: 1; } 50%, 100% { opacity: 0; } }
  @keyframes twinkle  { 0%, 100% { opacity: 1; } 50% { opacity: 0.15; } }
  @keyframes winblink { 0%, 46% { opacity: 1; } 47%, 53% { opacity: 0.1; } 54%, 100% { opacity: 1; } }
  @keyframes frameA   { 0%, 49% { opacity: 1; } 50%, 100% { opacity: 0; } }
  @keyframes frameB   { 0%, 49% { opacity: 0; } 50%, 100% { opacity: 1; } }
  @keyframes eyeblink { 0%, 90% { opacity: 1; } 91%, 96% { opacity: 0; } 97%, 100% { opacity: 1; } }
  @keyframes shoot    { 0% { transform: translate(0, 0); opacity: 0; }
                        4% { opacity: 0.9; }
                        22% { transform: translate(420px, 140px); opacity: 0; }
                        100% { transform: translate(420px, 140px); opacity: 0; } }
  @media (prefers-reduced-motion: reduce) { * { animation: none !important; } }
</style>
<rect x="0" y="8" width="8" height="8" fill="#ff004d"/>
<rect x="8" y="0" width="8" height="8" fill="#ff004d" class="twinkle" style="animation-delay:-1.7s"/>
<rect x="16" y="0" width="8" height="8" fill="#ffa300" class="twinkle" style="animation-delay:-1.4s"/>
<rect x="24" y="8" width="8" height="8" fill="#ffa300"/>
<rect x="32" y="16" width="8" height="8" fill="#ffec27" class="twinkle" style="animation-delay:-1.3s"/>
<rect x="40" y="16" width="8" height="8" fill="#ffec27" class="twinkle" style="animation-delay:-1.1s"/>
<rect x="48" y="8" width="8" height="8" fill="#00e436" class="twinkle" style="animation-delay:-0.2s"/>
<rect x="56" y="0" width="8" height="8" fill="#00e436"/>
<rect x="64" y="0" width="8" height="8" fill="#29adff"/>
<rect x="72" y="8" width="8" height="8" fill="#29adff" class="twinkle" style="animation-delay:-0.6s"/>
<rect x="80" y="16" width="8" height="8" fill="#ff77a8"/>
<rect x="88" y="16" width="8" height="8" fill="#ff77a8"/>
<rect x="96" y="8" width="8" height="8" fill="#ff004d"/>
<rect x="104" y="0" width="8" height="8" fill="#ff004d"/>
<rect x="112" y="0" width="8" height="8" fill="#ffa300"/>
<rect x="120" y="8" width="8" height="8" fill="#ffa300" class="twinkle" style="animation-delay:-2.2s"/>
<rect x="128" y="16" width="8" height="8" fill="#ffec27"/>
<rect x="136" y="16" width="8" height="8" fill="#ffec27" class="twinkle" style="animation-delay:-0.3s"/>
<rect x="144" y="8" width="8" height="8" fill="#00e436"/>
<rect x="152" y="0" width="8" height="8" fill="#00e436"/>
<rect x="160" y="0" width="8" height="8" fill="#29adff" class="twinkle" style="animation-delay:-1.5s"/>
<rect x="168" y="8" width="8" height="8" fill="#29adff"/>
<rect x="176" y="16" width="8" height="8" fill="#ff77a8"/>
<rect x="184" y="16" width="8" height="8" fill="#ff77a8"/>
<rect x="192" y="8" width="8" height="8" fill="#ff004d" class="twinkle" style="animation-delay:-0.2s"/>
<rect x="200" y="0" width="8" height="8" fill="#ff004d" class="twinkle" style="animation-delay:-1.8s"/>
<rect x="208" y="0" width="8" height="8" fill="#ffa300"/>
<rect x="216" y="8" width="8" height="8" fill="#ffa300"/>
<rect x="224" y="16" width="8" height="8" fill="#ffec27"/>
<rect x="232" y="16" width="8" height="8" fill="#ffec27"/>
<rect x="240" y="8" width="8" height="8" fill="#00e436"/>
<rect x="248" y="0" width="8" height="8" fill="#00e436"/>
<rect x="256" y="0" width="8" height="8" fill="#29adff"/>
<rect x="264" y="8" width="8" height="8" fill="#29adff" class="twinkle" style="animation-delay:-1.5s"/>
<rect x="272" y="16" width="8" height="8" fill="#ff77a8"/>
<rect x="280" y="16" width="8" height="8" fill="#ff77a8"/>
<rect x="288" y="8" width="8" height="8" fill="#ff004d"/>
<rect x="296" y="0" width="8" height="8" fill="#ff004d"/>
<rect x="304" y="0" width="8" height="8" fill="#ffa300"/>
<rect x="312" y="8" width="8" height="8" fill="#ffa300" class="twinkle" style="animation-delay:-1.1s"/>
<rect x="320" y="16" width="8" height="8" fill="#ffec27"/>
<rect x="328" y="16" width="8" height="8" fill="#ffec27" class="twinkle" style="animation-delay:-1.3s"/>
<rect x="336" y="8" width="8" height="8" fill="#00e436" class="twinkle" style="animation-delay:-1.7s"/>
<rect x="344" y="0" width="8" height="8" fill="#00e436"/>
<rect x="352" y="0" width="8" height="8" fill="#29adff"/>
<rect x="360" y="8" width="8" height="8" fill="#29adff"/>
<rect x="368" y="16" width="8" height="8" fill="#ff77a8"/>
<rect x="376" y="16" width="8" height="8" fill="#ff77a8"/>
<rect x="384" y="8" width="8" height="8" fill="#ff004d"/>
<rect x="392" y="0" width="8" height="8" fill="#ff004d"/>
<rect x="400" y="0" width="8" height="8" fill="#ffa300"/>
<rect x="408" y="8" width="8" height="8" fill="#ffa300"/>
<rect x="416" y="16" width="8" height="8" fill="#ffec27"/>
<rect x="424" y="16" width="8" height="8" fill="#ffec27"/>
<rect x="432" y="8" width="8" height="8" fill="#00e436"/>
<rect x="440" y="0" width="8" height="8" fill="#00e436" class="twinkle" style="animation-delay:-1.8s"/>
<rect x="448" y="0" width="8" height="8" fill="#29adff"/>
<rect x="456" y="8" width="8" height="8" fill="#29adff"/>
<rect x="464" y="16" width="8" height="8" fill="#ff77a8"/>
<rect x="472" y="16" width="8" height="8" fill="#ff77a8"/>
<rect x="480" y="8" width="8" height="8" fill="#ff004d"/>
<rect x="488" y="0" width="8" height="8" fill="#ff004d"/>
<rect x="496" y="0" width="8" height="8" fill="#ffa300" class="twinkle" style="animation-delay:-1.2s"/>
<rect x="504" y="8" width="8" height="8" fill="#ffa300" class="twinkle" style="animation-delay:-0.3s"/>
<rect x="512" y="16" width="8" height="8" fill="#ffec27" class="twinkle" style="animation-delay:-2.0s"/>
<rect x="520" y="16" width="8" height="8" fill="#ffec27" class="twinkle" style="animation-delay:-0.6s"/>
<rect x="528" y="8" width="8" height="8" fill="#00e436"/>
<rect x="536" y="0" width="8" height="8" fill="#00e436"/>
<rect x="544" y="0" width="8" height="8" fill="#29adff" class="twinkle" style="animation-delay:-1.2s"/>
<rect x="552" y="8" width="8" height="8" fill="#29adff"/>
<rect x="560" y="16" width="8" height="8" fill="#ff77a8"/>
<rect x="568" y="16" width="8" height="8" fill="#ff77a8"/>
<rect x="576" y="8" width="8" height="8" fill="#ff004d"/>
<rect x="584" y="0" width="8" height="8" fill="#ff004d"/>
<rect x="592" y="0" width="8" height="8" fill="#ffa300"/>
<rect x="600" y="8" width="8" height="8" fill="#ffa300"/>
<rect x="608" y="16" width="8" height="8" fill="#ffec27"/>
<rect x="616" y="16" width="8" height="8" fill="#ffec27"/>
<rect x="624" y="8" width="8" height="8" fill="#00e436" class="twinkle" style="animation-delay:-0.5s"/>
<rect x="632" y="0" width="8" height="8" fill="#00e436" class="twinkle" style="animation-delay:-0.6s"/>
<rect x="640" y="0" width="8" height="8" fill="#29adff"/>
<rect x="648" y="8" width="8" height="8" fill="#29adff"/>
<rect x="656" y="16" width="8" height="8" fill="#ff77a8"/>
<rect x="664" y="16" width="8" height="8" fill="#ff77a8" class="twinkle" style="animation-delay:-1.1s"/>
<rect x="672" y="8" width="8" height="8" fill="#ff004d"/>
<rect x="680" y="0" width="8" height="8" fill="#ff004d"/>
<rect x="688" y="0" width="8" height="8" fill="#ffa300"/>
<rect x="696" y="8" width="8" height="8" fill="#ffa300"/>
<rect x="704" y="16" width="8" height="8" fill="#ffec27"/>
<rect x="712" y="16" width="8" height="8" fill="#ffec27"/>
<rect x="720" y="8" width="8" height="8" fill="#00e436"/>
<rect x="728" y="0" width="8" height="8" fill="#00e436" class="twinkle" style="animation-delay:-2.3s"/>
<rect x="736" y="0" width="8" height="8" fill="#29adff"/>
<rect x="744" y="8" width="8" height="8" fill="#29adff"/>
<rect x="752" y="16" width="8" height="8" fill="#ff77a8"/>
<rect x="760" y="16" width="8" height="8" fill="#ff77a8"/>
<rect x="768" y="8" width="8" height="8" fill="#ff004d"/>
<rect x="776" y="0" width="8" height="8" fill="#ff004d" class="twinkle" style="animation-delay:-1.6s"/>
<rect x="784" y="0" width="8" height="8" fill="#ffa300" class="twinkle" style="animation-delay:-0.2s"/>
<rect x="792" y="8" width="8" height="8" fill="#ffa300" class="twinkle" style="animation-delay:-0.4s"/>
<rect x="800" y="16" width="8" height="8" fill="#ffec27"/>
<rect x="808" y="16" width="8" height="8" fill="#ffec27" class="twinkle" style="animation-delay:-0.0s"/>
<rect x="816" y="8" width="8" height="8" fill="#00e436" class="twinkle" style="animation-delay:-0.3s"/>
<rect x="824" y="0" width="8" height="8" fill="#00e436"/>
</svg>