<svg xmlns="http://www.w3.org/2000/svg" width="960" height="96" viewBox="0 0 960 96" shape-rendering="crispEdges" role="img">
<style>
  .blink   { animation: blink 1.1s steps(1) infinite; }
  .twinkle { animation: twinkle 2.6s ease-in-out infinite; }
  .win     { animation: winblink 4s steps(1) infinite; }
  .fa      { animation: frameA 1.2s steps(1) infinite; }
  .fb      { animation: frameB 1.2s steps(1) infinite; }
  .eyes    { animation: eyeblink 5s steps(1) infinite; }
  .shoot   { animation: shoot 9s linear infinite; }
  @keyframes blink    { 0%, 49% { opacity: 1; } 50%, 100% { opacity: 0; } }
  @keyframes twinkle  { 0%, 100% { opacity: 1; } 50% { opacity: 0.15; } }
  @keyframes winblink { 0%, 46% { opacity: 1; } 47%, 53% { opacity: 0.1; } 54%, 100% { opacity: 1; } }
  @keyframes frameA   { 0%, 49% { opacity: 1; } 50%, 100% { opacity: 0; } }
  @keyframes frameB   { 0%, 49% { opacity: 0; } 50%, 100% { opacity: 1; } }
  @keyframes eyeblink { 0%, 90% { opacity: 1; } 91%, 96% { opacity: 0; } 97%, 100% { opacity: 1; } }
  @keyframes shoot    { 0% { transform: translate(0, 0); opacity: 0; }
                        4% { opacity: 0.9; }
                        22% { transform: translate(420px, 140px); opacity: 0; }
                        100% { transform: translate(420px, 140px); opacity: 0; } }
  @media (prefers-reduced-motion: reduce) { * { animation: none !important; } }
</style>
<rect x="136" y="32" width="8" height="8" fill="#7e2553"/>
<rect x="144" y="32" width="8" height="8" fill="#7e2553"/>
<rect x="152" y="32" width="8" height="8" fill="#7e2553"/>
<rect x="144" y="40" width="8" height="8" fill="#7e2553"/>
<rect x="144" y="48" width="8" height="8" fill="#7e2553"/>
<rect x="144" y="56" width="8" height="8" fill="#7e2553"/>
<rect x="144" y="64" width="8" height="8" fill="#7e2553"/>
<rect x="168" y="32" width="8" height="8" fill="#7e2553"/>
<rect x="184" y="32" width="8" height="8" fill="#7e2553"/>
<rect x="168" y="40" width="8" height="8" fill="#7e2553"/>
<rect x="184" y="40" width="8" height="8" fill="#7e2553"/>
<rect x="168" y="48" width="8" height="8" fill="#7e2553"/>
<rect x="176" y="48" width="8" height="8" fill="#7e2553"/>
<rect x="184" y="48" width="8" height="8" fill="#7e2553"/>
<rect x="168" y="56" width="8" height="8" fill="#7e2553"/>
<rect x="184" y="56" width="8" height="8" fill="#7e2553"/>
<rect x="168" y="64" width="8" height="8" fill="#7e2553"/>
<rect x="184" y="64" width="8" height="8" fill="#7e2553"/>
<rect x="208" y="32" width="8" height="8" fill="#7e2553"/>
<rect x="200" y="40" width="8" height="8" fill="#7e2553"/>
<rect x="216" y="40" width="8" height="8" fill="#7e2553"/>
<rect x="200" y="48" width="8" height="8" fill="#7e2553"/>
<rect x="208" y="48" width="8" height="8" fill="#7e2553"/>
<rect x="216" y="48" width="8" height="8" fill="#7e2553"/>
<rect x="200" y="56" width="8" height="8" fill="#7e2553"/>
<rect x="216" y="56" width="8" height="8" fill="#7e2553"/>
<rect x="200" y="64" width="8" height="8" fill="#7e2553"/>
<rect x="216" y="64" width="8" height="8" fill="#7e2553"/>
<rect x="232" y="32" width="8" height="8" fill="#7e2553"/>
<rect x="256" y="32" width="8" height="8" fill="#7e2553"/>
<rect x="232" y="40" width="8" height="8" fill="#7e2553"/>
<rect x="240" y="40" width="8" height="8" fill="#7e2553"/>
<rect x="256" y="40" width="8" height="8" fill="#7e2553"/>
<rect x="232" y="48" width="8" height="8" fill="#7e2553"/>
<rect x="248" y="48" width="8" height="8" fill="#7e2553"/>
<rect x="256" y="48" width="8" height="8" fill="#7e2553"/>
<rect x="232" y="56" width="8" height="8" fill="#7e2553"/>
<rect x="256" y="56" width="8" height="8" fill="#7e2553"/>
<rect x="232" y="64" width="8" height="8" fill="#7e2553"/>
<rect x="256" y="64" width="8" height="8" fill="#7e2553"/>
<rect x="272" y="32" width="8" height="8" fill="#7e2553"/>
<rect x="288" y="32" width="8" height="8" fill="#7e2553"/>
<rect x="272" y="40" width="8" height="8" fill="#7e2553"/>
<rect x="280" y="40" width="8" height="8" fill="#7e2553"/>
<rect x="272" y="48" width="8" height="8" fill="#7e2553"/>
<rect x="272" y="56" width="8" height="8" fill="#7e2553"/>
<rect x="280" y="56" width="8" height="8" fill="#7e2553"/>
<rect x="272" y="64" width="8" height="8" fill="#7e2553"/>
<rect x="288" y="64" width="8" height="8" fill="#7e2553"/>
<rect x="304" y="32" width="8" height="8" fill="#7e2553"/>
<rect x="312" y="32" width="8" height="8" fill="#7e2553"/>
<rect x="320" y="32" width="8" height="8" fill="#7e2553"/>
<rect x="304" y="40" width="8" height="8" fill="#7e2553"/>
<rect x="304" y="48" width="8" height="8" fill="#7e2553"/>
<rect x="312" y="48" width="8" height="8" fill="#7e2553"/>
<rect x="320" y="48" width="8" height="8" fill="#7e2553"/>
<rect x="320" y="56" width="8" height="8" fill="#7e2553"/>
<rect x="304" y="64" width="8" height="8" fill="#7e2553"/>
<rect x="312" y="64" width="8" height="8" fill="#7e2553"/>
<rect x="320" y="64" width="8" height="8" fill="#7e2553"/>
<rect x="360" y="32" width="8" height="8" fill="#7e2553"/>
<rect x="368" y="32" width="8" height="8" fill="#7e2553"/>
<rect x="376" y="32" width="8" height="8" fill="#7e2553"/>
<rect x="360" y="40" width="8" height="8" fill="#7e2553"/>
<rect x="360" y="48" width="8" height="8" fill="#7e2553"/>
<rect x="368" y="48" width="8" height="8" fill="#7e2553"/>
<rect x="360" y="56" width="8" height="8" fill="#7e2553"/>
<rect x="360" y="64" width="8" height="8" fill="#7e2553"/>
<rect x="392" y="32" width="8" height="8" fill="#7e2553"/>
<rect x="400" y="32" width="8" height="8" fill="#7e2553"/>
<rect x="408" y="32" width="8" height="8" fill="#7e2553"/>
<rect x="392" y="40" width="8" height="8" fill="#7e2553"/>
<rect x="408" y="40" width="8" height="8" fill="#7e2553"/>
<rect x="392" y="48" width="8" height="8" fill="#7e2553"/>
<rect x="408" y="48" width="8" height="8" fill="#7e2553"/>
<rect x="392" y="56" width="8" height="8" fill="#7e2553"/>
<rect x="408" y="56" width="8" height="8" fill="#7e2553"/>
<rect x="392" y="64" width="8" height="8" fill="#7e2553"/>
<rect x="400" y="64" width="8" height="8" fill="#7e2553"/>
<rect x="408" y="64" width="8" height="8" fill="#7e2553"/>
<rect x="424" y="32" width="8" height="8" fill="#7e2553"/>
<rect x="432" y="32" width="8" height="8" fill="#7e2553"/>
<rect x="424" y="40" width="8" height="8" fill="#7e2553"/>
<rect x="440" y="40" width="8" height="8" fill="#7e2553"/>
<rect x="424" y="48" width="8" height="8" fill="#7e2553"/>
<rect x="432" y="48" width="8" height="8" fill="#7e2553"/>
<rect x="424" y="56" width="8" height="8" fill="#7e2553"/>
<rect x="440" y="56" width="8" height="8" fill="#7e2553"/>
<rect x="424" y="64" width="8" height="8" fill="#7e2553"/>
<rect x="440" y="64" width="8" height="8" fill="#7e2553"/>
<rect x="480" y="32" width="8" height="8" fill="#7e2553"/>
<rect x="488" y="32" width="8" height="8" fill="#7e2553"/>
<rect x="496" y="32" width="8" height="8" fill="#7e2553"/>
<rect x="480" y="40" width="8" height="8" fill="#7e2553"/>
<rect x="480" y="48" width="8" height="8" fill="#7e2553"/>
<rect x="488" y="48" width="8" height="8" fill="#7e2553"/>
<rect x="496" y="48" width="8" height="8" fill="#7e2553"/>
<rect x="496" y="56" width="8" height="8" fill="#7e2553"/>
<rect x="480" y="64" width="8" height="8" fill="#7e2553"/>
<rect x="488" y="64" width="8" height="8" fill="#7e2553"/>
<rect x="496" y="64" width="8" height="8" fill="#7e2553"/>
<rect x="512" y="32" width="8" height="8" fill="#7e2553"/>
<rect x="520" y="32" width="8" height="8" fill="#7e2553"/>
<rect x="528" y="32" width="8" height="8" fill="#7e2553"/>
<rect x="520" y="40" width="8" height="8" fill="#7e2553"/>
<rect x="520" y="48" width="8" height="8" fill="#7e2553"/>
<rect x="520" y="56" width="8" height="8" fill="#7e2553"/>
<rect x="520" y="64" width="8" height="8" fill="#7e2553"/>
<rect x="544" y="32" width="8" height="8" fill="#7e2553"/>
<rect x="552" y="32" width="8" height="8" fill="#7e2553"/>
<rect x="560" y="32" width="8" height="8" fill="#7e2553"/>
<rect x="544" y="40" width="8" height="8" fill="#7e2553"/>
<rect x="560" y="40" width="8" height="8" fill="#7e2553"/>
<rect x="544" y="48" width="8" height="8" fill="#7e2553"/>
<rect x="560" y="48" width="8" height="8" fill="#7e2553"/>
<rect x="544" y="56" width="8" height="8" fill="#7e2553"/>
<rect x="560" y="56" width="8" height="8" fill="#7e2553"/>
<rect x="544" y="64" width="8" height="8" fill="#7e2553"/>
<rect x="552" y="64" width="8" height="8" fill="#7e2553"/>
<rect x="560" y="64" width="8" height="8" fill="#7e2553"/>
<rect x="576" y="32" width="8" height="8" fill="#7e2553"/>
<rect x="584" y="32" width="8" height="8" fill="#7e2553"/>
<rect x="592" y="32" width="8" height="8" fill="#7e2553"/>
<rect x="576" y="40" width="8" height="8" fill="#7e2553"/>
<rect x="592" y="40" width="8" height="8" fill="#7e2553"/>
<rect x="576" y="48" width="8" height="8" fill="#7e2553"/>
<rect x="584" y="48" width="8" height="8" fill="#7e2553"/>
<rect x="592" y="48" width="8" height="8" fill="#7e2553"/>
<rect x="576" y="56" width="8" height="8" fill="#7e2553"/>
<rect x="576" y="64" width="8" height="8" fill="#7e2553"/>
<rect x="608" y="32" width="8" height="8" fill="#7e2553"/>
<rect x="616" y="32" width="8" height="8" fill="#7e2553"/>
<rect x="624" y="32" width="8" height="8" fill="#7e2553"/>
<rect x="608" y="40" width="8" height="8" fill="#7e2553"/>
<rect x="624" y="40" width="8" height="8" fill="#7e2553"/>
<rect x="608" y="48" width="8" height="8" fill="#7e2553"/>
<rect x="616" y="48" width="8" height="8" fill="#7e2553"/>
<rect x="624" y="48" width="8" height="8" fill="#7e2553"/>
<rect x="608" y="56" width="8" height="8" fill="#7e2553"/>
<rect x="608" y="64" width="8" height="8" fill="#7e2553"/>
<rect x="640" y="32" width="8" height="8" fill="#7e2553"/>
<rect x="648" y="32" width="8" height="8" fill="#7e2553"/>
<rect x="656" y="32" width="8" height="8" fill="#7e2553"/>
<rect x="648" y="40" width="8" height="8" fill="#7e2553"/>
<rect x="648" y="48" width="8" height="8" fill="#7e2553"/>
<rect x="648" y="56" width="8" height="8" fill="#7e2553"/>
<rect x="640" y="64" width="8" height="8" fill="#7e2553"/>
<rect x="648" y="64" width="8" height="8" fill="#7e2553"/>
<rect x="656" y="64" width="8" height="8" fill="#7e2553"/>
<rect x="672" y="32" width="8" height="8" fill="#7e2553"/>
<rect x="696" y="32" width="8" height="8" fill="#7e2553"/>
<rect x="672" y="40" width="8" height="8" fill="#7e2553"/>
<rect x="680" y="40" width="8" height="8" fill="#7e2553"/>
<rect x="696" y="40" width="8" height="8" fill="#7e2553"/>
<rect x="672" y="48" width="8" height="8" fill="#7e2553"/>
<rect x="688" y="48" width="8" height="8" fill="#7e2553"/>
<rect x="696" y="48" width="8" height="8" fill="#7e2553"/>
<rect x="672" y="56" width="8" height="8" fill="#7e2553"/>
<rect x="696" y="56" width="8" height="8" fill="#7e2553"/>
<rect x="672" y="64" width="8" height="8" fill="#7e2553"/>
<rect x="696" y="64" width="8" height="8" fill="#7e2553"/>
<rect x="712" y="32" width="8" height="8" fill="#7e2553"/>
<rect x="720" y="32" width="8" height="8" fill="#7e2553"/>
<rect x="728" y="32" width="8" height="8" fill="#7e2553"/>
<rect x="712" y="40" width="8" height="8" fill="#7e2553"/>
<rect x="712" y="48" width="8" height="8" fill="#7e2553"/>
<rect x="728" y="48" width="8" height="8" fill="#7e2553"/>
<rect x="712" y="56" width="8" height="8" fill="#7e2553"/>
<rect x="728" y="56" width="8" height="8" fill="#7e2553"/>
<rect x="712" y="64" width="8" height="8" fill="#7e2553"/>
<rect x="720" y="64" width="8" height="8" fill="#7e2553"/>
<rect x="728" y="64" width="8" height="8" fill="#7e2553"/>
<rect x="768" y="32" width="8" height="8" fill="#7e2553"/>
<rect x="776" y="32" width="8" height="8" fill="#7e2553"/>
<rect x="768" y="40" width="8" height="8" fill="#7e2553"/>
<rect x="784" y="40" width="8" height="8" fill="#7e2553"/>
<rect x="768" y="48" width="8" height="8" fill="#7e2553"/>
<rect x="776" y="48" width="8" height="8" fill="#7e2553"/>
<rect x="768" y="56" width="8" height="8" fill="#7e2553"/>
<rect x="784" y="56" width="8" height="8" fill="#7e2553"/>
<rect x="768" y="64" width="8" height="8" fill="#7e2553"/>
<rect x="776" y="64" width="8" height="8" fill="#7e2553"/>
<rect x="800" y="32" width="8" height="8" fill="#7e2553"/>
<rect x="816" y="32" width="8" height="8" fill="#7e2553"/>
<rect x="800" y="40" width="8" height="8" fill="#7e2553"/>
<rect x="816" y="40" width="8" height="8" fill="#7e2553"/>
<rect x="808" y="48" width="8" height="8" fill="#7e2553"/>
<rect x="808" y="56" width="8" height="8" fill="#7e2553"/>
<rect x="808" y="64" width="8" height="8" fill="#7e2553"/>
<rect x="832" y="32" width="8" height="8" fill="#7e2553"/>
<rect x="832" y="40" width="8" height="8" fill="#7e2553"/>
<rect x="832" y="48" width="8" height="8" fill="#7e2553"/>
<rect x="832" y="64" width="8" height="8" fill="#7e2553"/>
<rect x="128" y="24" width="8" height="8" fill="#ff77a8"/>
<rect x="136" y="24" width="8" height="8" fill="#ff77a8"/>
<rect x="144" y="24" width="8" height="8" fill="#ff77a8"/>
<rect x="136" y="32" width="8" height="8" fill="#ff77a8"/>
<rect x="136" y="40" width="8" height="8" fill="#ff77a8"/>
<rect x="136" y="48" width="8" height="8" fill="#ff77a8"/>
<rect x="136" y="56" width="8" height="8" fill="#ff77a8"/>
<rect x="160" y="24" width="8" height="8" fill="#ff77a8"/>
<rect x="176" y="24" width="8" height="8" fill="#ff77a8"/>
<rect x="160" y="32" width="8" height="8" fill="#ff77a8"/>
<rect x="176" y="32" width="8" height="8" fill="#ff77a8"/>
<rect x="160" y="40" width="8" height="8" fill="#ff77a8"/>
<rect x="168" y="40" width="8" height="8" fill="#ff77a8"/>
<rect x="176" y="40" width="8" height="8" fill="#ff77a8"/>
<rect x="160" y="48" width="8" height="8" fill="#ff77a8"/>
<rect x="176" y="48" width="8" height="8" fill="#ff77a8"/>
<rect x="160" y="56" width="8" height="8" fill="#ff77a8"/>
<rect x="176" y="56" width="8" height="8" fill="#ff77a8"/>
<rect x="200" y="24" width="8" height="8" fill="#ff77a8"/>
<rect x="192" y="32" width="8" height="8" fill="#ff77a8"/>
<rect x="208" y="32" width="8" height="8" fill="#ff77a8"/>
<rect x="192" y="40" width="8" height="8" fill="#ff77a8"/>
<rect x="200" y="40" width="8" height="8" fill="#ff77a8"/>
<rect x="208" y="40" width="8" height="8" fill="#ff77a8"/>
<rect x="192" y="48" width="8" height="8" fill="#ff77a8"/>
<rect x="208" y="48" width="8" height="8" fill="#ff77a8"/>
<rect x="192" y="56" width="8" height="8" fill="#ff77a8"/>
<rect x="208" y="56" width="8" height="8" fill="#ff77a8"/>
<rect x="224" y="24" width="8" height="8" fill="#ff77a8"/>
<rect x="248" y="24" width="8" height="8" fill="#ff77a8"/>
<rect x="224" y="32" width="8" height="8" fill="#ff77a8"/>
<rect x="232" y="32" width="8" height="8" fill="#ff77a8"/>
<rect x="248" y="32" width="8" height="8" fill="#ff77a8"/>
<rect x="224" y="40" width="8" height="8" fill="#ff77a8"/>
<rect x="240" y="40" width="8" height="8" fill="#ff77a8"/>
<rect x="248" y="40" width="8" height="8" fill="#ff77a8"/>
<rect x="224" y="48" width="8" height="8" fill="#ff77a8"/>
<rect x="248" y="48" width="8" height="8" fill="#ff77a8"/>
<rect x="224" y="56" width="8" height="8" fill="#ff77a8"/>
<rect x="248" y="56" width="8" height="8" fill="#ff77a8"/>
<rect x="264" y="24" width="8" height="8" fill="#ff77a8"/>
<rect x="280" y="24" width="8" height="8" fill="#ff77a8"/>
<rect x="264" y="32" width="8" height="8" fill="#ff77a8"/>
<rect x="272" y="32" width="8" height="8" fill="#ff77a8"/>
<rect x="264" y="40" width="8" height="8" fill="#ff77a8"/>
<rect x="264" y="48" width="8" height="8" fill="#ff77a8"/>
<rect x="272" y="48" width="8" height="8" fill="#ff77a8"/>
<rect x="264" y="56" width="8" height="8" fill="#ff77a8"/>
<rect x="280" y="56" width="8" height="8" fill="#ff77a8"/>
<rect x="296" y="24" width="8" height="8" fill="#ff77a8"/>
<rect x="304" y="24" width="8" height="8" fill="#ff77a8"/>
<rect x="312" y="24" width="8" height="8" fill="#ff77a8"/>
<rect x="296" y="32" width="8" height="8" fill="#ff77a8"/>
<rect x="296" y="40" width="8" height="8" fill="#ff77a8"/>
<rect x="304" y="40" width="8" height="8" fill="#ff77a8"/>
<rect x="312" y="40" width="8" height="8" fill="#ff77a8"/>
<rect x="312" y="48" width="8" height="8" fill="#ff77a8"/>
<rect x="296" y="56" width="8" height="8" fill="#ff77a8"/>
<rect x="304" y="56" width="8" height="8" fill="#ff77a8"/>
<rect x="312" y="56" width="8" height="8" fill="#ff77a8"/>
<rect x="352" y="24" width="8" height="8" fill="#ff77a8"/>
<rect x="360" y="24" width="8" height="8" fill="#ff77a8"/>
<rect x="368" y="24" width="8" height="8" fill="#ff77a8"/>
<rect x="352" y="32" width="8" height="8" fill="#ff77a8"/>
<rect x="352" y="40" width="8" height="8" fill="#ff77a8"/>
<rect x="360" y="40" width="8" height="8" fill="#ff77a8"/>
<rect x="352" y="48" width="8" height="8" fill="#ff77a8"/>
<rect x="352" y="56" width="8" height="8" fill="#ff77a8"/>
<rect x="384" y="24" width="8" height="8" fill="#ff77a8"/>
<rect x="392" y="24" width="8" height="8" fill="#ff77a8"/>
<rect x="400" y="24" width="8" height="8" fill="#ff77a8"/>
<rect x="384" y="32" width="8" height="8" fill="#ff77a8"/>
<rect x="400" y="32" width="8" height="8" fill="#ff77a8"/>
<rect x="384" y="40" width="8" height="8" fill="#ff77a8"/>
<rect x="400" y="40" width="8" height="8" fill="#ff77a8"/>
<rect x="384" y="48" width="8" height="8" fill="#ff77a8"/>
<rect x="400" y="48" width="8" height="8" fill="#ff77a8"/>
<rect x="384" y="56" width="8" height="8" fill="#ff77a8"/>
<rect x="392" y="56" width="8" height="8" fill="#ff77a8"/>
<rect x="400" y="56" width="8" height="8" fill="#ff77a8"/>
<rect x="416" y="24" width="8" height="8" fill="#ff77a8"/>
<rect x="424" y="24" width="8" height="8" fill="#ff77a8"/>
<rect x="416" y="32" width="8" height="8" fill="#ff77a8"/>
<rect x="432" y="32" width="8" height="8" fill="#ff77a8"/>
<rect x="416" y="40" width="8" height="8" fill="#ff77a8"/>
<rect x="424" y="40" width="8" height="8" fill="#ff77a8"/>
<rect x="416" y="48" width="8" height="8" fill="#ff77a8"/>
<rect x="432" y="48" width="8" height="8" fill="#ff77a8"/>
<rect x="416" y="56" width="8" height="8" fill="#ff77a8"/>
<rect x="432" y="56" width="8" height="8" fill="#ff77a8"/>
<rect x="472" y="24" width="8" height="8" fill="#ff77a8"/>
<rect x="480" y="24" width="8" height="8" fill="#ff77a8"/>
<rect x="488" y="24" width="8" height="8" fill="#ff77a8"/>
<rect x="472" y="32" width="8" height="8" fill="#ff77a8"/>
<rect x="472" y="40" width="8" height="8" fill="#ff77a8"/>
<rect x="480" y="40" width="8" height="8" fill="#ff77a8"/>
<rect x="488" y="40" width="8" height="8" fill="#ff77a8"/>
<rect x="488" y="48" width="8" height="8" fill="#ff77a8"/>
<rect x="472" y="56" width="8" height="8" fill="#ff77a8"/>
<rect x="480" y="56" width="8" height="8" fill="#ff77a8"/>
<rect x="488" y="56" width="8" height="8" fill="#ff77a8"/>
<rect x="504" y="24" width="8" height="8" fill="#ff77a8"/>
<rect x="512" y="24" width="8" height="8" fill="#ff77a8"/>
<rect x="520" y="24" width="8" height="8" fill="#ff77a8"/>
<rect x="512" y="32" width="8" height="8" fill="#ff77a8"/>
<rect x="512" y="40" width="8" height="8" fill="#ff77a8"/>
<rect x="512" y="48" width="8" height="8" fill="#ff77a8"/>
<rect x="512" y="56" width="8" height="8" fill="#ff77a8"/>
<rect x="536" y="24" width="8" height="8" fill="#ff77a8"/>
<rect x="544" y="24" width="8" height="8" fill="#ff77a8"/>
<rect x="552" y="24" width="8" height="8" fill="#ff77a8"/>
<rect x="536" y="32" width="8" height="8" fill="#ff77a8"/>
<rect x="552" y="32" width="8" height="8" fill="#ff77a8"/>
<rect x="536" y="40" width="8" height="8" fill="#ff77a8"/>
<rect x="552" y="40" width="8" height="8" fill="#ff77a8"/>
<rect x="536" y="48" width="8" height="8" fill="#ff77a8"/>
<rect x="552" y="48" width="8" height="8" fill="#ff77a8"/>
<rect x="536" y="56" width="8" height="8" fill="#ff77a8"/>
<rect x="544" y="56" width="8" height="8" fill="#ff77a8"/>
<rect x="552" y="56" width="8" height="8" fill="#ff77a8"/>
<rect x="568" y="24" width="8" height="8" fill="#ff77a8"/>
<rect x="576" y="24" width="8" height="8" fill="#ff77a8"/>
<rect x="584" y="24" width="8" height="8" fill="#ff77a8"/>
<rect x="568" y="32" width="8" height="8" fill="#ff77a8"/>
<rect x="584" y="32" width="8" height="8" fill="#ff77a8"/>
<rect x="568" y="40" width="8" height="8" fill="#ff77a8"/>
<rect x="576" y="40" width="8" height="8" fill="#ff77a8"/>
<rect x="584" y="40" width="8" height="8" fill="#ff77a8"/>
<rect x="568" y="48" width="8" height="8" fill="#ff77a8"/>
<rect x="568" y="56" width="8" height="8" fill="#ff77a8"/>
<rect x="600" y="24" width="8" height="8" fill="#ff77a8"/>
<rect x="608" y="24" width="8" height="8" fill="#ff77a8"/>
<rect x="616" y="24" width="8" height="8" fill="#ff77a8"/>
<rect x="600" y="32" width="8" height="8" fill="#ff77a8"/>
<rect x="616" y="32" width="8" height="8" fill="#ff77a8"/>
<rect x="600" y="40" width="8" height="8" fill="#ff77a8"/>
<rect x="608" y="40" width="8" height="8" fill="#ff77a8"/>
<rect x="616" y="40" width="8" height="8" fill="#ff77a8"/>
<rect x="600" y="48" width="8" height="8" fill="#ff77a8"/>
<rect x="600" y="56" width="8" height="8" fill="#ff77a8"/>
<rect x="632" y="24" width="8" height="8" fill="#ff77a8"/>
<rect x="640" y="24" width="8" height="8" fill="#ff77a8"/>
<rect x="648" y="24" width="8" height="8" fill="#ff77a8"/>
<rect x="640" y="32" width="8" height="8" fill="#ff77a8"/>
<rect x="640" y="40" width="8" height="8" fill="#ff77a8"/>
<rect x="640" y="48" width="8" height="8" fill="#ff77a8"/>
<rect x="632" y="56" width="8" height="8" fill="#ff77a8"/>
<rect x="640" y="56" width="8" height="8" fill="#ff77a8"/>
<rect x="648" y="56" width="8" height="8" fill="#ff77a8"/>
<rect x="664" y="24" width="8" height="8" fill="#ff77a8"/>
<rect x="688" y="24" width="8" height="8" fill="#ff77a8"/>
<rect x="664" y="32" width="8" height="8" fill="#ff77a8"/>
<rect x="672" y="32" width="8" height="8" fill="#ff77a8"/>
<rect x="688" y="32" width="8" height="8" fill="#ff77a8"/>
<rect x="664" y="40" width="8" height="8" fill="#ff77a8"/>
<rect x="680" y="40" width="8" height="8" fill="#ff77a8"/>
<rect x="688" y="40" width="8" height="8" fill="#ff77a8"/>
<rect x="664" y="48" width="8" height="8" fill="#ff77a8"/>
<rect x="688" y="48" width="8" height="8" fill="#ff77a8"/>
<rect x="664" y="56" width="8" height="8" fill="#ff77a8"/>
<rect x="688" y="56" width="8" height="8" fill="#ff77a8"/>
<rect x="704" y="24" width="8" height="8" fill="#ff77a8"/>
<rect x="712" y="24" width="8" height="8" fill="#ff77a8"/>
<rect x="720" y="24" width="8" height="8" fill="#ff77a8"/>
<rect x="704" y="32" width="8" height="8" fill="#ff77a8"/>
<rect x="704" y="40" width="8" height="8" fill="#ff77a8"/>
<rect x="720" y="40" width="8" height="8" fill="#ff77a8"/>
<rect x="704" y="48" width="8" height="8" fill="#ff77a8"/>
<rect x="720" y="48" width="8" height="8" fill="#ff77a8"/>
<rect x="704" y="56" width="8" height="8" fill="#ff77a8"/>
<rect x="712" y="56" width="8" height="8" fill="#ff77a8"/>
<rect x="720" y="56" width="8" height="8" fill="#ff77a8"/>
<rect x="760" y="24" width="8" height="8" fill="#ff77a8"/>
<rect x="768" y="24" width="8" height="8" fill="#ff77a8"/>
<rect x="760" y="32" width="8" height="8" fill="#ff77a8"/>
<rect x="776" y="32" width="8" height="8" fill="#ff77a8"/>
<rect x="760" y="40" width="8" height="8" fill="#ff77a8"/>
<rect x="768" y="40" width="8" height="8" fill="#ff77a8"/>
<rect x="760" y="48" width="8" height="8" fill="#ff77a8"/>
<rect x="776" y="48" width="8" height="8" fill="#ff77a8"/>
<rect x="760" y="56" width="8" height="8" fill="#ff77a8"/>
<rect x="768" y="56" width="8" height="8" fill="#ff77a8"/>
<rect x="792" y="24" width="8" height="8" fill="#ff77a8"/>
<rect x="808" y="24" width="8" height="8" fill="#ff77a8"/>
<rect x="792" y="32" width="8" height="8" fill="#ff77a8"/>
<rect x="808" y="32" width="8" height="8" fill="#ff77a8"/>
<rect x="800" y="40" width="8" height="8" fill="#ff77a8"/>
<rect x="800" y="48" width="8" height="8" fill="#ff77a8"/>
<rect x="800" y="56" width="8" height="8" fill="#ff77a8"/>
<rect x="824" y="24" width="8" height="8" fill="#ff77a8"/>
<rect x="824" y="32" width="8" height="8" fill="#ff77a8"/>
<rect x="824" y="40" width="8" height="8" fill="#ff77a8"/>
<rect x="824" y="56" width="8" height="8" fill="#ff77a8"/>
<g class="fa">
<rect x="32" y="16" width="8" height="8" fill="#00e436"/>
<rect x="80" y="16" width="8" height="8" fill="#00e436"/>
<rect x="40" y="24" width="8" height="8" fill="#00e436"/>
<rect x="72" y="24" width="8" height="8" fill="#00e436"/>
<rect x="32" y="32" width="8" height="8" fill="#00e436"/>
<rect x="40" y="32" width="8" height="8" fill="#00e436"/>
<rect x="48" y="32" width="8" height="8" fill="#00e436"/>
<rect x="56" y="32" width="8" height="8" fill="#00e436"/>
<rect x="64" y="32" width="8" height="8" fill="#00e436"/>
<rect x="72" y="32" width="8" height="8" fill="#00e436"/>
<rect x="80" y="32" width="8" height="8" fill="#00e436"/>
<rect x="24" y="40" width="8" height="8" fill="#00e436"/>
<rect x="32" y="40" width="8" height="8" fill="#00e436"/>
<rect x="48" y="40" width="8" height="8" fill="#00e436"/>
<rect x="56" y="40" width="8" height="8" fill="#00e436"/>
<rect x="64" y="40" width="8" height="8" fill="#00e436"/>
<rect x="80" y="40" width="8" height="8" fill="#00e436"/>
<rect x="88" y="40" width="8" height="8" fill="#00e436"/>
<rect x="16" y="48" width="8" height="8" fill="#00e436"/>
<rect x="24" y="48" width="8" height="8" fill="#00e436"/>
<rect x="32" y="48" width="8" height="8" fill="#00e436"/>
<rect x="40" y="48" width="8" height="8" fill="#00e436"/>
<rect x="48" y="48" width="8" height="8" fill="#00e436"/>
<rect x="56" y="48" width="8" height="8" fill="#00e436"/>
<rect x="64" y="48" width="8" height="8" fill="#00e436"/>
<rect x="72" y="48" width="8" height="8" fill="#00e436"/>
<rect x="80" y="48" width="8" height="8" fill="#00e436"/>
<rect x="88" y="48" width="8" height="8" fill="#00e436"/>
<rect x="96" y="48" width="8" height="8" fill="#00e436"/>
<rect x="16" y="56" width="8" height="8" fill="#00e436"/>
<rect x="32" y="56" width="8" height="8" fill="#00e436"/>
<rect x="40" y="56" width="8" height="8" fill="#00e436"/>
<rect x="48" y="56" width="8" height="8" fill="#00e436"/>
<rect x="56" y="56" width="8" height="8" fill="#00e436"/>
<rect x="64" y="56" width="8" height="8" fill="#00e436"/>
<rect x="72" y="56" width="8" height="8" fill="#00e436"/>
<rect x="80" y="56" width="8" height="8" fill="#00e436"/>
<rect x="96" y="56" width="8" height="8" fill="#00e436"/>
<rect x="16" y="64" width="8" height="8" fill="#00e436"/>
<rect x="32" y="64" width="8" height="8" fill="#00e436"/>
<rect x="80" y="64" width="8" height="8" fill="#00e436"/>
<rect x="96" y="64" width="8" height="8" fill="#00e436"/>
<rect x="40" y="72" width="8" height="8" fill="#00e436"/>
<rect x="48" y="72" width="8" height="8" fill="#00e436"/>
<rect x="64" y="72" width="8" height="8" fill="#00e436"/>
<rect x="72" y="72" width="8" height="8" fill="#00e436"/>
</g>
<g class="fb">
<rect x="32" y="16" width="8" height="8" fill="#00e436"/>
<rect x="80" y="16" width="8" height="8" fill="#00e436"/>
<rect x="16" y="24" width="8" height="8" fill="#00e436"/>
<rect x="40" y="24" width="8" height="8" fill="#00e436"/>
<rect x="72" y="24" width="8" height="8" fill="#00e436"/>
<rect x="96" y="24" width="8" height="8" fill="#00e436"/>
<rect x="16" y="32" width="8" height="8" fill="#00e436"/>
<rect x="32" y="32" width="8" height="8" fill="#00e436"/>
<rect x="40" y="32" width="8" height="8" fill="#00e436"/>
<rect x="48" y="32" width="8" height="8" fill="#00e436"/>
<rect x="56" y="32" width="8" height="8" fill="#00e436"/>
<rect x="64" y="32" width="8" height="8" fill="#00e436"/>
<rect x="72" y="32" width="8" height="8" fill="#00e436"/>
<rect x="80" y="32" width="8" height="8" fill="#00e436"/>
<rect x="96" y="32" width="8" height="8" fill="#00e436"/>
<rect x="16" y="40" width="8" height="8" fill="#00e436"/>
<rect x="24" y="40" width="8" height="8" fill="#00e436"/>
<rect x="32" y="40" width="8" height="8" fill="#00e436"/>
<rect x="48" y="40" width="8" height="8" fill="#00e436"/>
<rect x="56" y="40" width="8" height="8" fill="#00e436"/>
<rect x="64" y="40" width="8" height="8" fill="#00e436"/>
<rect x="80" y="40" width="8" height="8" fill="#00e436"/>
<rect x="88" y="40" width="8" height="8" fill="#00e436"/>
<rect x="96" y="40" width="8" height="8" fill="#00e436"/>
<rect x="24" y="48" width="8" height="8" fill="#00e436"/>
<rect x="32" y="48" width="8" height="8" fill="#00e436"/>
<rect x="40" y="48" width="8" height="8" fill="#00e436"/>
<rect x="48" y="48" width="8" height="8" fill="#00e436"/>
<rect x="56" y="48" width="8" height="8" fill="#00e436"/>
<rect x="64" y="48" width="8" height="8" fill="#00e436"/>
<rect x="72" y="48" width="8" height="8" fill="#00e436"/>
<rect x="80" y="48" width="8" height="8" fill="#00e436"/>
<rect x="88" y="48" width="8" height="8" fill="#00e436"/>
<rect x="32" y="56" width="8" height="8" fill="#00e436"/>
<rect x="40" y="56" width="8" height="8" fill="#00e436"/>
<rect x="48" y="56" width="8" height="8" fill="#00e436"/>
<rect x="56" y="56" width="8" height="8" fill="#00e436"/>
<rect x="64" y="56" width="8" height="8" fill="#00e436"/>
<rect x="72" y="56" width="8" height="8" fill="#00e436"/>
<rect x="80" y="56" width="8" height="8" fill="#00e436"/>
<rect x="32" y="64" width="8" height="8" fill="#00e436"/>
<rect x="80" y="64" width="8" height="8" fill="#00e436"/>
<rect x="24" y="72" width="8" height="8" fill="#00e436"/>
<rect x="88" y="72" width="8" height="8" fill="#00e436"/>
</g>
<g class="fa">
<rect x="872" y="16" width="8" height="8" fill="#00e436"/>
<rect x="920" y="16" width="8" height="8" fill="#00e436"/>
<rect x="880" y="24" width="8" height="8" fill="#00e436"/>
<rect x="912" y="24" width="8" height="8" fill="#00e436"/>
<rect x="872" y="32" width="8" height="8" fill="#00e436"/>
<rect x="880" y="32" width="8" height="8" fill="#00e436"/>
<rect x="888" y="32" width="8" height="8" fill="#00e436"/>
<rect x="896" y="32" width="8" height="8" fill="#00e436"/>
<rect x="904" y="32" width="8" height="8" fill="#00e436"/>
<rect x="912" y="32" width="8" height="8" fill="#00e436"/>
<rect x="920" y="32" width="8" height="8" fill="#00e436"/>
<rect x="864" y="40" width="8" height="8" fill="#00e436"/>
<rect x="872" y="40" width="8" height="8" fill="#00e436"/>
<rect x="888" y="40" width="8" height="8" fill="#00e436"/>
<rect x="896" y="40" width="8" height="8" fill="#00e436"/>
<rect x="904" y="40" width="8" height="8" fill="#00e436"/>
<rect x="920" y="40" width="8" height="8" fill="#00e436"/>
<rect x="928" y="40" width="8" height="8" fill="#00e436"/>
<rect x="856" y="48" width="8" height="8" fill="#00e436"/>
<rect x="864" y="48" width="8" height="8" fill="#00e436"/>
<rect x="872" y="48" width="8" height="8" fill="#00e436"/>
<rect x="880" y="48" width="8" height="8" fill="#00e436"/>
<rect x="888" y="48" width="8" height="8" fill="#00e436"/>
<rect x="896" y="48" width="8" height="8" fill="#00e436"/>
<rect x="904" y="48" width="8" height="8" fill="#00e436"/>
<rect x="912" y="48" width="8" height="8" fill="#00e436"/>
<rect x="920" y="48" width="8" height="8" fill="#00e436"/>
<rect x="928" y="48" width="8" height="8" fill="#00e436"/>
<rect x="936" y="48" width="8" height="8" fill="#00e436"/>
<rect x="856" y="56" width="8" height="8" fill="#00e436"/>
<rect x="872" y="56" width="8" height="8" fill="#00e436"/>
<rect x="880" y="56" width="8" height="8" fill="#00e436"/>
<rect x="888" y="56" width="8" height="8" fill="#00e436"/>
<rect x="896" y="56" width="8" height="8" fill="#00e436"/>
<rect x="904" y="56" width="8" height="8" fill="#00e436"/>
<rect x="912" y="56" width="8" height="8" fill="#00e436"/>
<rect x="920" y="56" width="8" height="8" fill="#00e436"/>
<rect x="936" y="56" width="8" height="8" fill="#00e436"/>
<rect x="856" y="64" width="8" height="8" fill="#00e436"/>
<rect x="872" y="64" width="8" height="8" fill="#00e436"/>
<rect x="920" y="64" width="8" height="8" fill="#00e436"/>
<rect x="936" y="64" width="8" height="8" fill="#00e436"/>
<rect x="880" y="72" width="8" height="8" fill="#00e436"/>
<rect x="888" y="72" width="8" height="8" fill="#00e436"/>
<rect x="904" y="72" width="8" height="8" fill="#00e436"/>
<rect x="912" y="72" width="8" height="8" fill="#00e436"/>
</g>
<g class="fb">
<rect x="872" y="16" width="8" height="8" fill="#00e436"/>
<rect x="920" y="16" width="8" height="8" fill="#00e436"/>
<rect x="856" y="24" width="8" height="8" fill="#00e436"/>
<rect x="880" y="24" width="8" height="8" fill="#00e436"/>
<rect x="912" y="24" width="8" height="8" fill="#00e436"/>
<rect x="936" y="24" width="8" height="8" fill="#00e436"/>
<rect x="856" y="32" width="8" height="8" fill="#00e436"/>
<rect x="872" y="32" width="8" height="8" fill="#00e436"/>
<rect x="880" y="32" width="8" height="8" fill="#00e436"/>
<rect x="888" y="32" width="8" height="8" fill="#00e436"/>
<rect x="896" y="32" width="8" height="8" fill="#00e436"/>
<rect x="904" y="32" width="8" height="8" fill="#00e436"/>
<rect x="912" y="32" width="8" height="8" fill="#00e436"/>
<rect x="920" y="32" width="8" height="8" fill="#00e436"/>
<rect x="936" y="32" width="8" height="8" fill="#00e436"/>
<rect x="856" y="40" width="8" height="8" fill="#00e436"/>
<rect x="864" y="40" width="8" height="8" fill="#00e436"/>
<rect x="872" y="40" width="8" height="8" fill="#00e436"/>
<rect x="888" y="40" width="8" height="8" fill="#00e436"/>
<rect x="896" y="40" width="8" height="8" fill="#00e436"/>
<rect x="904" y="40" width="8" height="8" fill="#00e436"/>
<rect x="920" y="40" width="8" height="8" fill="#00e436"/>
<rect x="928" y="40" width="8" height="8" fill="#00e436"/>
<rect x="936" y="40" width="8" height="8" fill="#00e436"/>
<rect x="864" y="48" width="8" height="8" fill="#00e436"/>
<rect x="872" y="48" width="8" height="8" fill="#00e436"/>
<rect x="880" y="48" width="8" height="8" fill="#00e436"/>
<rect x="888" y="48" width="8" height="8" fill="#00e436"/>
<rect x="896" y="48" width="8" height="8" fill="#00e436"/>
<rect x="904" y="48" width="8" height="8" fill="#00e436"/>
<rect x="912" y="48" width="8" height="8" fill="#00e436"/>
<rect x="920" y="48" width="8" height="8" fill="#00e436"/>
<rect x="928" y="48" width="8" height="8" fill="#00e436"/>
<rect x="872" y="56" width="8" height="8" fill="#00e436"/>
<rect x="880" y="56" width="8" height="8" fill="#00e436"/>
<rect x="888" y="56" width="8" height="8" fill="#00e436"/>
<rect x="896" y="56" width="8" height="8" fill="#00e436"/>
<rect x="904" y="56" width="8" height="8" fill="#00e436"/>
<rect x="912" y="56" width="8" height="8" fill="#00e436"/>
<rect x="920" y="56" width="8" height="8" fill="#00e436"/>
<rect x="872" y="64" width="8" height="8" fill="#00e436"/>
<rect x="920" y="64" width="8" height="8" fill="#00e436"/>
<rect x="864" y="72" width="8" height="8" fill="#00e436"/>
<rect x="928" y="72" width="8" height="8" fill="#00e436"/>
</g>
</svg>