<svg xmlns="http://www.w3.org/2000/svg" width="756" height="91" viewBox="0 0 756 91" role="img" aria-label="HELLO, IT IS JIM. WELCOME!"><style>
  .ch { opacity: 0; animation: appear .01s steps(1) forwards; }
  .cursor { opacity: 0; animation: caret 1.06s steps(1) infinite; }
  @keyframes appear { to { opacity: 1; } }
  @keyframes caret { 0%, 49% { opacity: 1; } 50%, 100% { opacity: 0; } }
  @media (prefers-reduced-motion: reduce) {
    .ch { animation: none; opacity: 1; }
    .cursor { animation: none; opacity: 1; }
  }
</style><circle cx="3.5" cy="3.5" r="2.4" fill="#d0d7de"/><circle cx="3.5" cy="87.5" r="2.4" fill="#d0d7de"/><circle cx="17.5" cy="3.5" r="2.4" fill="#d0d7de"/><circle cx="17.5" cy="87.5" r="2.4" fill="#d0d7de"/><circle cx="31.5" cy="3.5" r="2.4" fill="#d0d7de"/><circle cx="31.5" cy="87.5" r="2.4" fill="#d0d7de"/><circle cx="45.5" cy="3.5" r="2.4" fill="#d0d7de"/><circle cx="45.5" cy="87.5" r="2.4" fill="#d0d7de"/><circle cx="59.5" cy="3.5" r="2.4" fill="#d0d7de"/><circle cx="59.5" cy="87.5" r="2.4" fill="#d0d7de"/><circle cx="73.5" cy="3.5" r="2.4" fill="#d0d7de"/><circle cx="73.5" cy="87.5" r="2.4" fill="#d0d7de"/><circle cx="87.5" cy="3.5" r="2.4" fill="#d0d7de"/><circle cx="87.5" cy="87.5" r="2.4" fill="#d0d7de"/><circle cx="101.5" cy="3.5" r="2.4" fill="#d0d7de"/><circle cx="101.5" cy="87.5" r="2.4" fill="#d0d7de"/><circle cx="115.5" cy="3.5" r="2.4" fill="#d0d7de"/><circle cx="115.5" cy="87.5" r="2.4" fill="#d0d7de"/><circle cx="129.5" cy="3.5" r="2.4" fill="#d0d7de"/><circle cx="129.5" cy="87.5" r="2.4" fill="#d0d7de"/><circle cx="143.5" cy="3.5" r="2.4" fill="#d0d7de"/><circle cx="143.5" cy="87.5" r="2.4" fill="#d0d7de"/><circle cx="157.5" cy="3.5" r="2.4" fill="#d0d7de"/><circle cx="157.5" cy="87.5" r="2.4" fill="#d0d7de"/><circle cx="171.5" cy="3.5" r="2.4" fill="#d0d7de"/><circle cx="171.5" cy="87.5" r="2.4" fill="#d0d7de"/><circle cx="185.5" cy="3.5" r="2.4" fill="#d0d7de"/><circle cx="185.5" cy="87.5" r="2.4" fill="#d0d7de"/><circle cx="199.5" cy="3.5" r="2.4" fill="#d0d7de"/><circle cx="199.5" cy="87.5" r="2.4" fill="#d0d7de"/><circle cx="213.5" cy="3.5" r="2.4" fill="#d0d7de"/><circle cx="213.5" cy="87.5" r="2.4" fill="#d0d7de"/><circle cx="227.5" cy="3.5" r="2.4" fill="#d0d7de"/><circle cx="227.5" cy="87.5" r="2.4" fill="#d0d7de"/><circle cx="241.5" cy="3.5" r="2.4" fill="#d0d7de"/><circle cx="241.5" cy="87.5" r="2.4" fill="#d0d7de"/><circle cx="255.5" cy="3.5" r="2.4" fill="#d0d7de"/><circle cx="255.5" cy="87.5" r="2.4" fill="#d0d7de"/><circle cx="269.5" cy="3.5" r="2.4" fill="#d0d7de"/><circle cx="269.5" cy="87.5" r="2.4" fill="#d0d7de"/><circle cx="283.5" cy="3.5" r="2.4" fill="#d0d7de"/><circle cx="283.5" cy="87.5" r="2.4" fill="#d0d7de"/><circle cx="297.5" cy="3.5" r="2.4" fill="#d0d7de"/><circle cx="297.5" cy="87.5" r="2.4" fill="#d0d7de"/><circle cx="311.5" cy="3.5" r="2.4" fill="#d0d7de"/><circle cx="311.5" cy="87.5" r="2.4" fill="#d0d7de"/><circle cx="325.5" cy="3.5" r="2.4" fill="#d0d7de"/><circle cx="325.5" cy="87.5" r="2.4" fill="#d0d7de"/><circle cx="339.5" cy="3.5" r="2.4" fill="#d0d7de"/><circle cx="339.5" cy="87.5" r="2.4" fill="#d0d7de"/><circle cx="353.5" cy="3.5" r="2.4" fill="#d0d7de"/><circle cx="353.5" cy="87.5" r="2.4" fill="#d0d7de"/><circle cx="367.5" cy="3.5" r="2.4" fill="#d0d7de"/><circle cx="367.5" cy="87.5" r="2.4" fill="#d0d7de"/><circle cx="381.5" cy="3.5" r="2.4" fill="#d0d7de"/><circle cx="381.5" cy="87.5" r="2.4" fill="#d0d7de"/><circle cx="395.5" cy="3.5" r="2.4" fill="#d0d7de"/><circle cx="395.5" cy="87.5" r="2.4" fill="#d0d7de"/><circle cx="409.5" cy="3.5" r="2.4" fill="#d0d7de"/><circle cx="409.5" cy="87.5" r="2.4" fill="#d0d7de"/><circle cx="423.5" cy="3.5" r="2.4" fill="#d0d7de"/><circle cx="423.5" cy="87.5" r="2.4" fill="#d0d7de"/><circle cx="437.5" cy="3.5" r="2.4" fill="#d0d7de"/><circle cx="437.5" cy="87.5" r="2.4" fill="#d0d7de"/><circle cx="451.5" cy="3.5" r="2.4" fill="#d0d7de"/><circle cx="451.5" cy="87.5" r="2.4" fill="#d0d7de"/><circle cx="465.5" cy="3.5" r="2.4" fill="#d0d7de"/><circle cx="465.5" cy="87.5" r="2.4" fill="#d0d7de"/><circle cx="479.5" cy="3.5" r="2.4" fill="#d0d7de"/><circle cx="479.5" cy="87.5" r="2.4" fill="#d0d7de"/><circle cx="493.5" cy="3.5" r="2.4" fill="#d0d7de"/><circle cx="493.5" cy="87.5" r="2.4" fill="#d0d7de"/><circle cx="507.5" cy="3.5" r="2.4" fill="#d0d7de"/><circle cx="507.5" cy="87.5" r="2.4" fill="#d0d7de"/><circle cx="521.5" cy="3.5" r="2.4" fill="#d0d7de"/><circle cx="521.5" cy="87.5" r="2.4" fill="#d0d7de"/><circle cx="535.5" cy="3.5" r="2.4" fill="#d0d7de"/><circle cx="535.5" cy="87.5" r="2.4" fill="#d0d7de"/><circle cx="549.5" cy="3.5" r="2.4" fill="#d0d7de"/><circle cx="549.5" cy="87.5" r="2.4" fill="#d0d7de"/><circle cx="563.5" cy="3.5" r="2.4" fill="#d0d7de"/><circle cx="563.5" cy="87.5" r="2.4" fill="#d0d7de"/><circle cx="577.5" cy="3.5" r="2.4" fill="#d0d7de"/><circle cx="577.5" cy="87.5" r="2.4" fill="#d0d7de"/><circle cx="591.5" cy="3.5" r="2.4" fill="#d0d7de"/><circle cx="591.5" cy="87.5" r="2.4" fill="#d0d7de"/><circle cx="605.5" cy="3.5" r="2.4" fill="#d0d7de"/><circle cx="605.5" cy="87.5" r="2.4" fill="#d0d7de"/><circle cx="619.5" cy="3.5" r="2.4" fill="#d0d7de"/><circle cx="619.5" cy="87.5" r="2.4" fill="#d0d7de"/><circle cx="633.5" cy="3.5" r="2.4" fill="#d0d7de"/><circle cx="633.5" cy="87.5" r="2.4" fill="#d0d7de"/><circle cx="647.5" cy="3.5" r="2.4" fill="#d0d7de"/><circle cx="647.5" cy="87.5" r="2.4" fill="#d0d7de"/><circle cx="661.5" cy="3.5" r="2.4" fill="#d0d7de"/><circle cx="661.5" cy="87.5" r="2.4" fill="#d0d7de"/><circle cx="675.5" cy="3.5" r="2.4" fill="#d0d7de"/><circle cx="675.5" cy="87.5" r="2.4" fill="#d0d7de"/><circle cx="689.5" cy="3.5" r="2.4" fill="#d0d7de"/><circle cx="689.5" cy="87.5" r="2.4" fill="#d0d7de"/><circle cx="703.5" cy="3.5" r="2.4" fill="#d0d7de"/><circle cx="703.5" cy="87.5" r="2.4" fill="#d0d7de"/><circle cx="717.5" cy="3.5" r="2.4" fill="#d0d7de"/><circle cx="717.5" cy="87.5" r="2.4" fill="#d0d7de"/><circle cx="731.5" cy="3.5" r="2.4" fill="#d0d7de"/><circle cx="731.5" cy="87.5" r="2.4" fill="#d0d7de"/><circle cx="745.5" cy="3.5" r="2.4" fill="#d0d7de"/><circle cx="745.5" cy="87.5" r="2.4" fill="#d0d7de"/><circle cx="759.5" cy="3.5" r="2.4" fill="#d0d7de"/><circle cx="759.5" cy="87.5" r="2.4" fill="#d0d7de"/><circle cx="3.5" cy="17.5" r="2.4" fill="#d0d7de"/><circle cx="752.5" cy="17.5" r="2.4" fill="#d0d7de"/><circle cx="3.5" cy="31.5" r="2.4" fill="#d0d7de"/><circle cx="752.5" cy="31.5" r="2.4" fill="#d0d7de"/><circle cx="3.5" cy="45.5" r="2.4" fill="#d0d7de"/><circle cx="752.5" cy="45.5" r="2.4" fill="#d0d7de"/><circle cx="3.5" cy="59.5" r="2.4" fill="#d0d7de"/><circle cx="752.5" cy="59.5" r="2.4" fill="#d0d7de"/><circle cx="3.5" cy="73.5" r="2.4" fill="#d0d7de"/><circle cx="752.5" cy="73.5" r="2.4" fill="#d0d7de"/><g class="ch" style="animation-delay:0.40s"><circle cx="31.5" cy="31.5" r="2.4" fill="#24292f"/><circle cx="45.5" cy="31.5" r="2.4" fill="#24292f"/><circle cx="31.5" cy="38.5" r="2.4" fill="#24292f"/><circle cx="45.5" cy="38.5" r="2.4" fill="#24292f"/><circle cx="31.5" cy="45.5" r="2.4" fill="#24292f"/><circle cx="38.5" cy="45.5" r="2.4" fill="#24292f"/><circle cx="45.5" cy="45.5" r="2.4" fill="#24292f"/><circle cx="31.5" cy="52.5" r="2.4" fill="#24292f"/><circle cx="45.5" cy="52.5" r="2.4" fill="#24292f"/><circle cx="31.5" cy="59.5" r="2.4" fill="#24292f"/><circle cx="45.5" cy="59.5" r="2.4" fill="#24292f"/></g><g class="ch" style="animation-delay:0.49s"><circle cx="59.5" cy="31.5" r="2.4" fill="#24292f"/><circle cx="66.5" cy="31.5" r="2.4" fill="#24292f"/><circle cx="73.5" cy="31.5" r="2.4" fill="#24292f"/><circle cx="59.5" cy="38.5" r="2.4" fill="#24292f"/><circle cx="59.5" cy="45.5" r="2.4" fill="#24292f"/><circle cx="66.5" cy="45.5" r="2.4" fill="#24292f"/><circle cx="59.5" cy="52.5" r="2.4" fill="#24292f"/><circle cx="59.5" cy="59.5" r="2.4" fill="#24292f"/><circle cx="66.5" cy="59.5" r="2.4" fill="#24292f"/><circle cx="73.5" cy="59.5" r="2.4" fill="#24292f"/></g><g class="ch" style="animation-delay:0.58s"><circle cx="87.5" cy="31.5" r="2.4" fill="#24292f"/><circle cx="87.5" cy="38.5" r="2.4" fill="#24292f"/><circle cx="87.5" cy="45.5" r="2.4" fill="#24292f"/><circle cx="87.5" cy="52.5" r="2.4" fill="#24292f"/><circle cx="87.5" cy="59.5" r="2.4" fill="#24292f"/><circle cx="94.5" cy="59.5" r="2.4" fill="#24292f"/><circle cx="101.5" cy="59.5" r="2.4" fill="#24292f"/></g><g class="ch" style="animation-delay:0.67s"><circle cx="115.5" cy="31.5" r="2.4" fill="#24292f"/><circle cx="115.5" cy="38.5" r="2.4" fill="#24292f"/><circle cx="115.5" cy="45.5" r="2.4" fill="#24292f"/><circle cx="115.5" cy="52.5" r="2.4" fill="#24292f"/><circle cx="115.5" cy="59.5" r="2.4" fill="#24292f"/><circle cx="122.5" cy="59.5" r="2.4" fill="#24292f"/><circle cx="129.5" cy="59.5" r="2.4" fill="#24292f"/></g><g class="ch" style="animation-delay:0.76s"><circle cx="143.5" cy="31.5" r="2.4" fill="#24292f"/><circle cx="150.5" cy="31.5" r="2.4" fill="#24292f"/><circle cx="157.5" cy="31.5" r="2.4" fill="#24292f"/><circle cx="143.5" cy="38.5" r="2.4" fill="#24292f"/><circle cx="157.5" cy="38.5" r="2.4" fill="#24292f"/><circle cx="143.5" cy="45.5" r="2.4" fill="#24292f"/><circle cx="157.5" cy="45.5" r="2.4" fill="#24292f"/><circle cx="143.5" cy="52.5" r="2.4" fill="#24292f"/><circle cx="157.5" cy="52.5" r="2.4" fill="#24292f"/><circle cx="143.5" cy="59.5" r="2.4" fill="#24292f"/><circle cx="150.5" cy="59.5" r="2.4" fill="#24292f"/><circle cx="157.5" cy="59.5" r="2.4" fill="#24292f"/></g><g class="ch" style="animation-delay:0.85s"><circle cx="178.5" cy="52.5" r="2.4" fill="#24292f"/><circle cx="171.5" cy="59.5" r="2.4" fill="#24292f"/></g><g class="ch" style="animation-delay:1.03s"><circle cx="213.5" cy="31.5" r="2.4" fill="#24292f"/><circle cx="220.5" cy="31.5" r="2.4" fill="#24292f"/><circle cx="227.5" cy="31.5" r="2.4" fill="#24292f"/><circle cx="220.5" cy="38.5" r="2.4" fill="#24292f"/><circle cx="220.5" cy="45.5" r="2.4" fill="#24292f"/><circle cx="220.5" cy="52.5" r="2.4" fill="#24292f"/><circle cx="213.5" cy="59.5" r="2.4" fill="#24292f"/><circle cx="220.5" cy="59.5" r="2.4" fill="#24292f"/><circle cx="227.5" cy="59.5" r="2.4" fill="#24292f"/></g><g class="ch" style="animation-delay:1.12s"><circle cx="241.5" cy="31.5" r="2.4" fill="#24292f"/><circle cx="248.5" cy="31.5" r="2.4" fill="#24292f"/><circle cx="255.5" cy="31.5" r="2.4" fill="#24292f"/><circle cx="248.5" cy="38.5" r="2.4" fill="#24292f"/><circle cx="248.5" cy="45.5" r="2.4" fill="#24292f"/><circle cx="248.5" cy="52.5" r="2.4" fill="#24292f"/><circle cx="248.5" cy="59.5" r="2.4" fill="#24292f"/></g><g class="ch" style="animation-delay:1.30s"><circle cx="290.5" cy="31.5" r="2.4" fill="#24292f"/><circle cx="297.5" cy="31.5" r="2.4" fill="#24292f"/><circle cx="304.5" cy="31.5" r="2.4" fill="#24292f"/><circle cx="297.5" cy="38.5" r="2.4" fill="#24292f"/><circle cx="297.5" cy="45.5" r="2.4" fill="#24292f"/><circle cx="297.5" cy="52.5" r="2.4" fill="#24292f"/><circle cx="290.5" cy="59.5" r="2.4" fill="#24292f"/><circle cx="297.5" cy="59.5" r="2.4" fill="#24292f"/><circle cx="304.5" cy="59.5" r="2.4" fill="#24292f"/></g><g class="ch" style="animation-delay:1.39s"><circle cx="318.5" cy="31.5" r="2.4" fill="#24292f"/><circle cx="325.5" cy="31.5" r="2.4" fill="#24292f"/><circle cx="332.5" cy="31.5" r="2.4" fill="#24292f"/><circle cx="318.5" cy="38.5" r="2.4" fill="#24292f"/><circle cx="318.5" cy="45.5" r="2.4" fill="#24292f"/><circle cx="325.5" cy="45.5" r="2.4" fill="#24292f"/><circle cx="332.5" cy="45.5" r="2.4" fill="#24292f"/><circle cx="332.5" cy="52.5" r="2.4" fill="#24292f"/><circle cx="318.5" cy="59.5" r="2.4" fill="#24292f"/><circle cx="325.5" cy="59.5" r="2.4" fill="#24292f"/><circle cx="332.5" cy="59.5" r="2.4" fill="#24292f"/></g><g class="ch" style="animation-delay:1.57s"><circle cx="381.5" cy="31.5" r="2.4" fill="#0969da"/><circle cx="381.5" cy="38.5" r="2.4" fill="#0969da"/><circle cx="381.5" cy="45.5" r="2.4" fill="#0969da"/><circle cx="367.5" cy="52.5" r="2.4" fill="#0969da"/><circle cx="381.5" cy="52.5" r="2.4" fill="#0969da"/><circle cx="367.5" cy="59.5" r="2.4" fill="#0969da"/><circle cx="374.5" cy="59.5" r="2.4" fill="#0969da"/><circle cx="381.5" cy="59.5" r="2.4" fill="#0969da"/></g><g class="ch" style="animation-delay:1.66s"><circle cx="395.5" cy="31.5" r="2.4" fill="#0969da"/><circle cx="402.5" cy="31.5" r="2.4" fill="#0969da"/><circle cx="409.5" cy="31.5" r="2.4" fill="#0969da"/><circle cx="402.5" cy="38.5" r="2.4" fill="#0969da"/><circle cx="402.5" cy="45.5" r="2.4" fill="#0969da"/><circle cx="402.5" cy="52.5" r="2.4" fill="#0969da"/><circle cx="395.5" cy="59.5" r="2.4" fill="#0969da"/><circle cx="402.5" cy="59.5" r="2.4" fill="#0969da"/><circle cx="409.5" cy="59.5" r="2.4" fill="#0969da"/></g><g class="ch" style="animation-delay:1.75s"><circle cx="423.5" cy="31.5" r="2.4" fill="#0969da"/><circle cx="451.5" cy="31.5" r="2.4" fill="#0969da"/><circle cx="423.5" cy="38.5" r="2.4" fill="#0969da"/><circle cx="430.5" cy="38.5" r="2.4" fill="#0969da"/><circle cx="444.5" cy="38.5" r="2.4" fill="#0969da"/><circle cx="451.5" cy="38.5" r="2.4" fill="#0969da"/><circle cx="423.5" cy="45.5" r="2.4" fill="#0969da"/><circle cx="437.5" cy="45.5" r="2.4" fill="#0969da"/><circle cx="451.5" cy="45.5" r="2.4" fill="#0969da"/><circle cx="423.5" cy="52.5" r="2.4" fill="#0969da"/><circle cx="451.5" cy="52.5" r="2.4" fill="#0969da"/><circle cx="423.5" cy="59.5" r="2.4" fill="#0969da"/><circle cx="451.5" cy="59.5" r="2.4" fill="#0969da"/></g><g class="ch" style="animation-delay:1.84s"><circle cx="465.5" cy="59.5" r="2.4" fill="#24292f"/></g><g class="ch" style="animation-delay:2.02s"><circle cx="500.5" cy="31.5" r="2.4" fill="#24292f"/><circle cx="528.5" cy="31.5" r="2.4" fill="#24292f"/><circle cx="500.5" cy="38.5" r="2.4" fill="#24292f"/><circle cx="528.5" cy="38.5" r="2.4" fill="#24292f"/><circle cx="500.5" cy="45.5" r="2.4" fill="#24292f"/><circle cx="514.5" cy="45.5" r="2.4" fill="#24292f"/><circle cx="528.5" cy="45.5" r="2.4" fill="#24292f"/><circle cx="500.5" cy="52.5" r="2.4" fill="#24292f"/><circle cx="514.5" cy="52.5" r="2.4" fill="#24292f"/><circle cx="528.5" cy="52.5" r="2.4" fill="#24292f"/><circle cx="507.5" cy="59.5" r="2.4" fill="#24292f"/><circle cx="521.5" cy="59.5" r="2.4" fill="#24292f"/></g><g class="ch" style="animation-delay:2.11s"><circle cx="542.5" cy="31.5" r="2.4" fill="#24292f"/><circle cx="549.5" cy="31.5" r="2.4" fill="#24292f"/><circle cx="556.5" cy="31.5" r="2.4" fill="#24292f"/><circle cx="542.5" cy="38.5" r="2.4" fill="#24292f"/><circle cx="542.5" cy="45.5" r="2.4" fill="#24292f"/><circle cx="549.5" cy="45.5" r="2.4" fill="#24292f"/><circle cx="542.5" cy="52.5" r="2.4" fill="#24292f"/><circle cx="542.5" cy="59.5" r="2.4" fill="#24292f"/><circle cx="549.5" cy="59.5" r="2.4" fill="#24292f"/><circle cx="556.5" cy="59.5" r="2.4" fill="#24292f"/></g><g class="ch" style="animation-delay:2.20s"><circle cx="570.5" cy="31.5" r="2.4" fill="#24292f"/><circle cx="570.5" cy="38.5" r="2.4" fill="#24292f"/><circle cx="570.5" cy="45.5" r="2.4" fill="#24292f"/><circle cx="570.5" cy="52.5" r="2.4" fill="#24292f"/><circle cx="570.5" cy="59.5" r="2.4" fill="#24292f"/><circle cx="577.5" cy="59.5" r="2.4" fill="#24292f"/><circle cx="584.5" cy="59.5" r="2.4" fill="#24292f"/></g><g class="ch" style="animation-delay:2.29s"><circle cx="598.5" cy="31.5" r="2.4" fill="#24292f"/><circle cx="605.5" cy="31.5" r="2.4" fill="#24292f"/><circle cx="612.5" cy="31.5" r="2.4" fill="#24292f"/><circle cx="598.5" cy="38.5" r="2.4" fill="#24292f"/><circle cx="598.5" cy="45.5" r="2.4" fill="#24292f"/><circle cx="598.5" cy="52.5" r="2.4" fill="#24292f"/><circle cx="598.5" cy="59.5" r="2.4" fill="#24292f"/><circle cx="605.5" cy="59.5" r="2.4" fill="#24292f"/><circle cx="612.5" cy="59.5" r="2.4" fill="#24292f"/></g><g class="ch" style="animation-delay:2.38s"><circle cx="626.5" cy="31.5" r="2.4" fill="#24292f"/><circle cx="633.5" cy="31.5" r="2.4" fill="#24292f"/><circle cx="640.5" cy="31.5" r="2.4" fill="#24292f"/><circle cx="626.5" cy="38.5" r="2.4" fill="#24292f"/><circle cx="640.5" cy="38.5" r="2.4" fill="#24292f"/><circle cx="626.5" cy="45.5" r="2.4" fill="#24292f"/><circle cx="640.5" cy="45.5" r="2.4" fill="#24292f"/><circle cx="626.5" cy="52.5" r="2.4" fill="#24292f"/><circle cx="640.5" cy="52.5" r="2.4" fill="#24292f"/><circle cx="626.5" cy="59.5" r="2.4" fill="#24292f"/><circle cx="633.5" cy="59.5" r="2.4" fill="#24292f"/><circle cx="640.5" cy="59.5" r="2.4" fill="#24292f"/></g><g class="ch" style="animation-delay:2.47s"><circle cx="654.5" cy="31.5" r="2.4" fill="#24292f"/><circle cx="682.5" cy="31.5" r="2.4" fill="#24292f"/><circle cx="654.5" cy="38.5" r="2.4" fill="#24292f"/><circle cx="661.5" cy="38.5" r="2.4" fill="#24292f"/><circle cx="675.5" cy="38.5" r="2.4" fill="#24292f"/><circle cx="682.5" cy="38.5" r="2.4" fill="#24292f"/><circle cx="654.5" cy="45.5" r="2.4" fill="#24292f"/><circle cx="668.5" cy="45.5" r="2.4" fill="#24292f"/><circle cx="682.5" cy="45.5" r="2.4" fill="#24292f"/><circle cx="654.5" cy="52.5" r="2.4" fill="#24292f"/><circle cx="682.5" cy="52.5" r="2.4" fill="#24292f"/><circle cx="654.5" cy="59.5" r="2.4" fill="#24292f"/><circle cx="682.5" cy="59.5" r="2.4" fill="#24292f"/></g><g class="ch" style="animation-delay:2.56s"><circle cx="696.5" cy="31.5" r="2.4" fill="#24292f"/><circle cx="703.5" cy="31.5" r="2.4" fill="#24292f"/><circle cx="710.5" cy="31.5" r="2.4" fill="#24292f"/><circle cx="696.5" cy="38.5" r="2.4" fill="#24292f"/><circle cx="696.5" cy="45.5" r="2.4" fill="#24292f"/><circle cx="703.5" cy="45.5" r="2.4" fill="#24292f"/><circle cx="696.5" cy="52.5" r="2.4" fill="#24292f"/><circle cx="696.5" cy="59.5" r="2.4" fill="#24292f"/><circle cx="703.5" cy="59.5" r="2.4" fill="#24292f"/><circle cx="710.5" cy="59.5" r="2.4" fill="#24292f"/></g><g class="ch" style="animation-delay:2.65s"><circle cx="724.5" cy="31.5" r="2.4" fill="#24292f"/><circle cx="724.5" cy="38.5" r="2.4" fill="#24292f"/><circle cx="724.5" cy="45.5" r="2.4" fill="#24292f"/><circle cx="724.5" cy="59.5" r="2.4" fill="#24292f"/></g><g class="cursor" style="animation-delay:2.74s"><circle cx="738.5" cy="31.5" r="2.4" fill="#24292f"/><circle cx="745.5" cy="31.5" r="2.4" fill="#24292f"/><circle cx="738.5" cy="38.5" r="2.4" fill="#24292f"/><circle cx="745.5" cy="38.5" r="2.4" fill="#24292f"/><circle cx="738.5" cy="45.5" r="2.4" fill="#24292f"/><circle cx="745.5" cy="45.5" r="2.4" fill="#24292f"/><circle cx="738.5" cy="52.5" r="2.4" fill="#24292f"/><circle cx="745.5" cy="52.5" r="2.4" fill="#24292f"/><circle cx="738.5" cy="59.5" r="2.4" fill="#24292f"/><circle cx="745.5" cy="59.5" r="2.4" fill="#24292f"/></g></svg>